<svg width="147" height="123" viewBox="0 0 147 123" fill="none" xmlns="http://www.w3.org/2000/svg">
<path d="M0.696733 123V8.09091H28.4702V54.2116H73.7493V8.09091H101.467V123H73.7493V76.8232H28.4702V123H0.696733ZM118.888 123V36.8182H146.325V123H118.888ZM132.635 26.7749C128.782 26.7749 125.471 25.5031 122.703 22.9595C119.935 20.3785 118.551 17.2739 118.551 13.6456C118.551 10.0547 119.935 6.98745 122.703 4.44389C125.471 1.86292 128.782 0.572436 132.635 0.572436C136.525 0.572436 139.835 1.86292 142.566 4.44389C145.334 6.98745 146.718 10.0547 146.718 13.6456C146.718 17.2739 145.334 20.3785 142.566 22.9595C139.835 25.5031 136.525 26.7749 132.635 26.7749Z" fill="white"/>
</svg>
