<svg width="219" height="50" viewBox="0 0 219 50" fill="none" xmlns="http://www.w3.org/2000/svg">
<path d="M2.09162 37V9.36364H21.3615V14.7884H8.77131V20.456H20.3764V25.8942H8.77131V31.5753H21.3615V37H2.09162ZM31.1584 16.2727L34.5724 23.1009L38.108 16.2727H44.7607L38.9716 26.6364L44.9766 37H38.3778L34.5724 30.1179L30.8615 37H24.1683L30.1868 26.6364L24.4652 16.2727H31.1584ZM56.7065 37.3913C54.5204 37.3913 52.6447 36.9415 51.0794 36.0419C49.523 35.1423 48.3265 33.8918 47.4899 32.2905C46.6532 30.6802 46.2349 28.8179 46.2349 26.7038C46.2349 24.5807 46.6532 22.7185 47.4899 21.1172C48.3355 19.5069 49.5365 18.2519 51.0929 17.3523C52.6582 16.4527 54.5249 16.0028 56.693 16.0028C58.6092 16.0028 60.278 16.3492 61.6994 17.0419C63.1298 17.7346 64.2453 18.7152 65.046 19.9837C65.8556 21.2431 66.283 22.723 66.3279 24.4233H60.161C60.0351 23.3617 59.6752 22.5296 59.0815 21.9268C58.4967 21.3241 57.7321 21.0227 56.7875 21.0227C56.0228 21.0227 55.3526 21.2386 54.7768 21.6705C54.2011 22.0933 53.7512 22.723 53.4274 23.5597C53.1125 24.3873 52.9551 25.4129 52.9551 26.6364C52.9551 27.8598 53.1125 28.8944 53.4274 29.7401C53.7512 30.5767 54.2011 31.2109 54.7768 31.6428C55.3526 32.0656 56.0228 32.277 56.7875 32.277C57.3992 32.277 57.939 32.1465 58.4068 31.8857C58.8836 31.6248 59.2749 31.2424 59.5808 30.7386C59.8867 30.2259 60.0801 29.6051 60.161 28.8764H66.3279C66.265 30.5857 65.8377 32.0791 65.046 33.3565C64.2633 34.634 63.1613 35.6281 61.7399 36.3388C60.3275 37.0405 58.6497 37.3913 56.7065 37.3913ZM76.3036 25.179V37H69.7049V9.36364H76.0877V20.0781H76.3171C76.7849 18.8007 77.5496 17.8021 78.6112 17.0824C79.6817 16.3627 80.9906 16.0028 82.538 16.0028C83.9954 16.0028 85.2638 16.3267 86.3434 16.9744C87.4229 17.6132 88.2596 18.5173 88.8533 19.6868C89.4561 20.8563 89.753 22.2237 89.744 23.7891V37H83.1452V25.0845C83.1542 23.933 82.8664 23.0334 82.2816 22.3857C81.6969 21.7379 80.8737 21.4141 79.8121 21.4141C79.1194 21.4141 78.5077 21.567 77.9769 21.8729C77.4551 22.1697 77.0458 22.5971 76.7489 23.1548C76.4611 23.7126 76.3126 24.3873 76.3036 25.179ZM103.552 37.3913C101.384 37.3913 99.5127 36.964 97.9384 36.1094C96.373 35.2457 95.1676 34.0178 94.3219 32.4254C93.4853 30.8241 93.0669 28.9214 93.0669 26.7173C93.0669 24.5762 93.4898 22.705 94.3354 21.1037C95.181 19.4934 96.373 18.2429 97.9114 17.3523C99.4498 16.4527 101.262 16.0028 103.35 16.0028C104.825 16.0028 106.174 16.2322 107.398 16.691C108.621 17.1499 109.678 17.8291 110.569 18.7287C111.46 19.6283 112.152 20.7393 112.647 22.0618C113.142 23.3752 113.389 24.8821 113.389 26.5824V28.2287H95.3745V24.3963H107.249C107.24 23.6946 107.074 23.0694 106.75 22.5206C106.426 21.9718 105.981 21.5445 105.414 21.2386C104.856 20.9238 104.213 20.7663 103.485 20.7663C102.747 20.7663 102.086 20.9328 101.501 21.2656C100.916 21.5895 100.453 22.0348 100.111 22.6016C99.7691 23.1593 99.5892 23.7936 99.5712 24.5043V28.4041C99.5712 29.2498 99.7376 29.992 100.07 30.6307C100.403 31.2604 100.876 31.7507 101.487 32.1016C102.099 32.4524 102.828 32.6278 103.673 32.6278C104.258 32.6278 104.789 32.5469 105.266 32.3849C105.743 32.223 106.152 31.9846 106.494 31.6697C106.836 31.3549 107.092 30.968 107.263 30.5092L113.322 30.6847C113.07 32.0431 112.517 33.2261 111.662 34.2337C110.816 35.2322 109.705 36.0104 108.329 36.5682C106.953 37.117 105.36 37.3913 103.552 37.3913ZM130.294 44.7727V33.6399H130.159C129.881 34.2786 129.485 34.8769 128.972 35.4347C128.459 35.9924 127.816 36.4422 127.042 36.7841C126.278 37.1259 125.373 37.2969 124.33 37.2969C122.801 37.2969 121.411 36.901 120.16 36.1094C118.91 35.3177 117.911 34.1302 117.164 32.5469C116.418 30.9635 116.044 28.9979 116.044 26.6499C116.044 24.2119 116.431 22.2057 117.205 20.6314C117.979 19.0571 118.991 17.892 120.241 17.1364C121.501 16.3807 122.855 16.0028 124.303 16.0028C125.391 16.0028 126.323 16.1918 127.096 16.5696C127.87 16.9384 128.509 17.4152 129.012 18C129.516 18.5848 129.899 19.192 130.159 19.8217H130.362V16.2727H136.893V44.7727H130.294ZM126.624 32.1555C127.425 32.1555 128.108 31.9306 128.675 31.4808C129.242 31.022 129.678 30.3788 129.984 29.5511C130.29 28.7235 130.443 27.7519 130.443 26.6364C130.443 25.5028 130.29 24.5268 129.984 23.7081C129.687 22.8894 129.251 22.2597 128.675 21.8189C128.108 21.3781 127.425 21.1577 126.624 21.1577C125.805 21.1577 125.113 21.3826 124.546 21.8324C123.979 22.2822 123.547 22.9164 123.25 23.7351C122.962 24.5537 122.819 25.5208 122.819 26.6364C122.819 27.7519 122.967 28.7235 123.264 29.5511C123.561 30.3788 123.988 31.022 124.546 31.4808C125.113 31.9306 125.805 32.1555 126.624 32.1555ZM154.439 28.0533V16.2727H161.024V37H154.736V33.1406H154.52C154.061 34.4091 153.279 35.4167 152.172 36.1634C151.075 36.901 149.748 37.2699 148.191 37.2699C146.779 37.2699 145.537 36.946 144.467 36.2983C143.396 35.6506 142.564 34.7464 141.97 33.5859C141.377 32.4164 141.075 31.049 141.066 29.4837V16.2727H147.665V28.1882C147.674 29.3127 147.971 30.1989 148.556 30.8466C149.14 31.4943 149.936 31.8182 150.944 31.8182C151.601 31.8182 152.19 31.6742 152.712 31.3864C153.243 31.0895 153.661 30.6622 153.967 30.1044C154.282 29.5376 154.439 28.8539 154.439 28.0533ZM174.913 37.3913C172.745 37.3913 170.874 36.964 169.3 36.1094C167.734 35.2457 166.529 34.0178 165.683 32.4254C164.847 30.8241 164.428 28.9214 164.428 26.7173C164.428 24.5762 164.851 22.705 165.697 21.1037C166.542 19.4934 167.734 18.2429 169.273 17.3523C170.811 16.4527 172.624 16.0028 174.711 16.0028C176.186 16.0028 177.536 16.2322 178.759 16.691C179.983 17.1499 181.04 17.8291 181.93 18.7287C182.821 19.6283 183.514 20.7393 184.009 22.0618C184.503 23.3752 184.751 24.8821 184.751 26.5824V28.2287H166.736V24.3963H178.611C178.602 23.6946 178.435 23.0694 178.112 22.5206C177.788 21.9718 177.342 21.5445 176.776 21.2386C176.218 20.9238 175.575 20.7663 174.846 20.7663C174.108 20.7663 173.447 20.9328 172.862 21.2656C172.277 21.5895 171.814 22.0348 171.472 22.6016C171.13 23.1593 170.951 23.7936 170.933 24.5043V28.4041C170.933 29.2498 171.099 29.992 171.432 30.6307C171.765 31.2604 172.237 31.7507 172.849 32.1016C173.46 32.4524 174.189 32.6278 175.035 32.6278C175.62 32.6278 176.15 32.5469 176.627 32.3849C177.104 32.223 177.513 31.9846 177.855 31.6697C178.197 31.3549 178.453 30.968 178.624 30.5092L184.683 30.6847C184.431 32.0431 183.878 33.2261 183.023 34.2337C182.178 35.2322 181.067 36.0104 179.69 36.5682C178.314 37.117 176.722 37.3913 174.913 37.3913ZM188.121 37V16.2727H194.531V20.0511H194.747C195.124 18.6837 195.741 17.6671 196.595 17.0014C197.45 16.3267 198.444 15.9893 199.578 15.9893C199.883 15.9893 200.198 16.0118 200.522 16.0568C200.846 16.0928 201.147 16.1513 201.426 16.2322V21.9673C201.111 21.8594 200.698 21.7739 200.185 21.7109C199.681 21.648 199.231 21.6165 198.835 21.6165C198.053 21.6165 197.347 21.7919 196.717 22.1428C196.096 22.4846 195.606 22.9659 195.246 23.5866C194.895 24.1984 194.72 24.9181 194.72 25.7457V37H188.121Z" fill="black"/>
<rect x="162" y="11" width="30" height="6" transform="rotate(-180 162 11)" fill="#41B4F8"/>
</svg>
