<svg width="208" height="129" viewBox="0 0 208 129" fill="none" xmlns="http://www.w3.org/2000/svg">
<path d="M0.403409 59V0.81818H24.4375C28.7936 0.81818 32.553 1.67045 35.7159 3.375C38.8977 5.0606 41.3504 7.41856 43.0739 10.4489C44.7973 13.4602 45.6591 16.964 45.6591 20.9602C45.6591 24.9754 44.7784 28.4886 43.017 31.5C41.2746 34.4924 38.7841 36.8125 35.5455 38.4602C32.3068 40.108 28.4621 40.9318 24.0114 40.9318H9.18182V29.8523H21.3977C23.5189 29.8523 25.2898 29.483 26.7102 28.7443C28.1496 28.0057 29.2386 26.9735 29.9773 25.6477C30.7159 24.303 31.0852 22.7405 31.0852 20.9602C31.0852 19.161 30.7159 17.608 29.9773 16.3011C29.2386 14.9754 28.1496 13.9527 26.7102 13.233C25.2708 12.5133 23.5 12.1534 21.3977 12.1534H14.4659V59H0.403409ZM58.1449 59H43.0312L62.6619 0.81818H81.3835L101.014 59H85.9006L72.2358 15.4773H71.7812L58.1449 59ZM56.1278 36.1023H87.7188V46.7841H56.1278V36.1023ZM107.278 59V0.81818H131.312C135.669 0.81818 139.428 1.60417 142.591 3.17614C145.773 4.72917 148.225 6.96401 149.949 9.88068C151.672 12.7784 152.534 16.2159 152.534 20.1932C152.534 24.2273 151.653 27.6553 149.892 30.4773C148.131 33.2803 145.631 35.4205 142.392 36.8977C139.153 38.3561 135.318 39.0852 130.886 39.0852H115.688V28.0057H128.273C130.394 28.0057 132.165 27.7311 133.585 27.1818C135.025 26.6136 136.114 25.7614 136.852 24.625C137.591 23.4697 137.96 21.9924 137.96 20.1932C137.96 18.3939 137.591 16.9072 136.852 15.733C136.114 14.5398 135.025 13.6496 133.585 13.0625C132.146 12.4564 130.375 12.1534 128.273 12.1534H121.341V59H107.278ZM140.034 32.4091L154.523 59H139.182L124.977 32.4091H140.034ZM158.344 12.2386V0.81818H207.52V12.2386H189.878V59H176.014V12.2386H158.344ZM49.9205 69.8182V128H37.9886L14.8352 94.4205H14.4659V128H0.403409V69.8182H12.5057L35.4034 103.341H35.8864V69.8182H49.9205ZM58.7628 128V69.8182H99.331V81.2386H72.8253V93.1705H97.2571V104.619H72.8253V116.58H99.331V128H58.7628ZM108.138 128V69.8182H132.172C136.528 69.8182 140.287 70.6042 143.45 72.1761C146.632 73.7292 149.085 75.964 150.808 78.8807C152.532 81.7784 153.393 85.2159 153.393 89.1932C153.393 93.2273 152.513 96.6553 150.751 99.4773C148.99 102.28 146.49 104.42 143.251 105.898C140.013 107.356 136.178 108.085 131.746 108.085H116.547V97.0057H129.132C131.253 97.0057 133.024 96.7311 134.445 96.1818C135.884 95.6136 136.973 94.7614 137.712 93.625C138.45 92.4697 138.82 90.9924 138.82 89.1932C138.82 87.3939 138.45 85.9072 137.712 84.733C136.973 83.5398 135.884 82.6496 134.445 82.0625C133.005 81.4564 131.234 81.1534 129.132 81.1534H122.2V128H108.138ZM140.893 101.409L155.382 128H140.041L125.837 101.409H140.893ZM192.555 87.2614C192.366 85.178 191.523 83.5587 190.027 82.4034C188.55 81.2292 186.438 80.642 183.692 80.642C181.874 80.642 180.358 80.8788 179.146 81.3523C177.934 81.8258 177.025 82.4792 176.419 83.3125C175.813 84.1269 175.5 85.0644 175.482 86.125C175.444 86.9962 175.614 87.7633 175.993 88.4261C176.391 89.089 176.959 89.6761 177.697 90.1875C178.455 90.6799 179.364 91.1155 180.425 91.4943C181.485 91.8731 182.679 92.2045 184.004 92.4886L189.004 93.625C191.883 94.25 194.421 95.0833 196.618 96.125C198.834 97.1667 200.69 98.4072 202.186 99.8466C203.701 101.286 204.847 102.943 205.624 104.818C206.4 106.693 206.798 108.795 206.817 111.125C206.798 114.799 205.87 117.953 204.033 120.585C202.196 123.218 199.554 125.235 196.107 126.636C192.679 128.038 188.54 128.739 183.692 128.739C178.824 128.739 174.582 128.009 170.964 126.551C167.347 125.093 164.535 122.877 162.527 119.903C160.519 116.93 159.487 113.17 159.43 108.625H172.896C173.01 110.5 173.512 112.062 174.402 113.312C175.292 114.562 176.514 115.509 178.067 116.153C179.639 116.797 181.457 117.119 183.521 117.119C185.415 117.119 187.025 116.864 188.351 116.352C189.696 115.841 190.728 115.131 191.447 114.222C192.167 113.312 192.536 112.271 192.555 111.097C192.536 109.998 192.196 109.061 191.533 108.284C190.87 107.489 189.847 106.807 188.464 106.239C187.101 105.652 185.358 105.112 183.237 104.619L177.158 103.199C172.12 102.044 168.152 100.178 165.254 97.6023C162.357 95.0076 160.917 91.5038 160.936 87.0909C160.917 83.4924 161.883 80.339 163.834 77.6307C165.785 74.9223 168.483 72.8106 171.93 71.2955C175.377 69.7803 179.307 69.0227 183.72 69.0227C188.228 69.0227 192.139 69.7898 195.453 71.3239C198.786 72.839 201.372 74.9697 203.209 77.7159C205.046 80.4621 205.983 83.6439 206.021 87.2614H192.555Z" fill="white"/>
</svg>
